<?xml version="1.0" encoding="UTF-8"?>
<svg width="79px" height="88px" viewBox="0 0 79 88" xmlns="http://www.w3.org/2000/svg" xmlns:xlink="http://www.w3.org/1999/xlink" version="1.1">
 <!-- Generated by Pixelmator Pro 2.0.3 -->
 <g id="surface1">
  <path id="Path" d="M43.434 69.363 C29.449 69.363 18.07 57.984 18.07 44 18.07 30.016 29.449 18.637 43.434 18.637 L43.434 0.953 C19.695 0.953 0.387 20.266 0.387 44 0.387 67.734 19.695 87.047 43.434 87.047" fill="#fcdc05" fill-opacity="1" stroke="none"/>
  <path id="Path-1" d="M78.703 69.363 C78.703 75.531 73.703 80.527 67.539 80.527 61.371 80.527 56.371 75.531 56.371 69.363 56.371 63.195 61.371 58.195 67.539 58.195 73.703 58.195 78.703 63.195 78.703 69.363" fill="#fcdc05" fill-opacity="1" stroke="none"/>
  <path id="Path-2" d="M78.703 18.637 C78.703 24.805 73.703 29.805 67.539 29.805 61.371 29.805 56.371 24.805 56.371 18.637 56.371 12.469 61.371 7.473 67.539 7.473 73.703 7.473 78.703 12.469 78.703 18.637" fill="#fcdc05" fill-opacity="1" stroke="none"/>
 </g>
</svg>
