<?xml version="1.0" encoding="UTF-8"?>
<svg width="256px" height="92px" viewBox="0 0 256 92" xmlns="http://www.w3.org/2000/svg" xmlns:xlink="http://www.w3.org/1999/xlink" version="1.1">
 <!-- Generated by Pixelmator Pro 2.0.3 -->
 <g id="surface1">
  <path id="Path" d="M43.434 69.363 C29.449 69.363 18.07 57.984 18.07 44 18.07 30.016 29.449 18.637 43.434 18.637 L43.434 0.953 C19.695 0.953 0.387 20.266 0.387 44 0.387 67.734 19.695 87.047 43.434 87.047" fill="#fcdc05" fill-opacity="1" stroke="none"/>
  <path id="Path-1" d="M78.703 69.363 C78.703 75.531 73.703 80.527 67.539 80.527 61.371 80.527 56.371 75.531 56.371 69.363 56.371 63.195 61.371 58.195 67.539 58.195 73.703 58.195 78.703 63.195 78.703 69.363" fill="#fcdc05" fill-opacity="1" stroke="none"/>
  <path id="Path-2" d="M78.703 18.637 C78.703 24.805 73.703 29.805 67.539 29.805 61.371 29.805 56.371 24.805 56.371 18.637 56.371 12.469 61.371 7.473 67.539 7.473 73.703 7.473 78.703 12.469 78.703 18.637" fill="#fcdc05" fill-opacity="1" stroke="none"/>
  <path id="Path-3" d="M114.836 21.324 L114.836 9.48 109.043 14.953 109.043 21.324 104.52 21.324 104.52 14.953 98.707 9.48 98.707 21.324 94.184 21.324 94.184 3.941 99.563 3.941 106.773 10.977 113.98 3.941 119.363 3.941 119.363 21.324" fill="#ffffff" fill-opacity="1" stroke="none"/>
  <path id="Path-4" d="M124.582 28.594 L128.852 19.008 122.129 3.941 126.949 3.941 131.258 13.969 135.57 3.941 140.391 3.941 129.402 28.594" fill="#ffffff" fill-opacity="1" stroke="none"/>
  <path id="Path-5" d="M169.914 21.324 L164.188 21.324 158.098 14.059 158.098 21.324 153.574 21.324 153.574 14.059 147.484 21.324 141.758 21.324 149.348 12.305 142.355 3.941 148.027 3.941 153.574 10.828 153.574 3.941 158.098 3.941 158.098 10.828 163.645 3.941 169.316 3.941 162.32 12.305" fill="#ffffff" fill-opacity="1" stroke="none"/>
  <path id="Path-6" d="M182.5 21.324 L182.5 16.473 171.648 16.473 171.648 3.941 176.172 3.941 176.172 12.152 182.5 12.152 182.5 3.941 187.023 3.941 187.023 21.324" fill="#ffffff" fill-opacity="1" stroke="none"/>
  <path id="Path-7" d="M202.742 21.324 L202.742 15.156 202.961 10.191 196.25 21.324 191.047 21.324 191.047 3.941 195.57 3.941 195.57 10.109 195.352 15.074 202.063 3.941 207.27 3.941 207.27 21.324" fill="#ffffff" fill-opacity="1" stroke="none"/>
  <path id="Path-8" d="M222.656 21.324 L222.656 14.473 215.77 14.473 215.77 21.324 211.242 21.324 211.242 3.941 215.77 3.941 215.77 10.156 222.656 10.156 222.656 3.941 227.184 3.941 227.184 21.324" fill="#ffffff" fill-opacity="1" stroke="none"/>
  <path id="Path-9" d="M235.133 12.633 C235.133 15.496 237.082 17.41 239.59 17.41 242.121 17.41 244.047 15.504 244.047 12.637 244.047 9.789 242.117 7.855 239.59 7.859 237.066 7.855 235.133 9.785 235.133 12.633 M244.043 6.445 L244.043 3.941 248.566 3.941 248.566 21.324 244.043 21.324 244.043 18.898 C242.887 20.59 241.027 21.719 238.559 21.719 234.039 21.719 230.563 17.973 230.563 12.633 230.563 7.262 234.102 3.547 238.531 3.547 241.008 3.547 242.879 4.715 244.043 6.445" fill="#ffffff" fill-opacity="1" stroke="none"/>
  <path id="Path-10" d="M98.707 49.316 L104.598 49.316 104.598 45.664 98.707 45.664 Z M98.707 39.16 L98.707 42.336 109.125 42.336 109.125 52.93 94.184 52.93 94.184 35.547 109.125 35.547 109.125 39.16" fill="#ffffff" fill-opacity="1" stroke="none"/>
  <path id="Path-11" d="M114.344 60.199 L118.613 50.613 111.891 35.547 116.711 35.547 121.02 45.574 125.332 35.547 130.152 35.547 119.16 60.199" fill="#ffffff" fill-opacity="1" stroke="none"/>
  <path id="Path-12" d="M137.164 48.613 L142.844 48.609 142.844 39.863 138.559 39.863 Z M150.59 48.609 L150.59 57.316 146.063 57.316 146.063 52.93 133.512 52.941 133.512 57.32 128.988 57.32 128.988 48.613 132.594 48.613 134.699 35.547 147.367 35.547 147.367 48.609" fill="#ffffff" fill-opacity="1" stroke="none"/>
  <path id="Path-13" d="M153.531 60.199 L157.801 50.613 151.078 35.547 155.898 35.547 160.203 45.574 164.52 35.547 169.34 35.547 158.352 60.199" fill="#ffffff" fill-opacity="1" stroke="none"/>
  <path id="Path-14" d="M200.652 48.621 L200.652 57.316 196.125 57.316 196.125 52.93 172.086 52.93 172.086 35.547 176.609 35.547 176.609 48.609 182.422 48.609 182.422 35.547 186.945 35.547 186.945 48.609 192.738 48.609 192.738 35.547 197.266 35.547 197.266 48.621" fill="#ffffff" fill-opacity="1" stroke="none"/>
  <path id="Path-15" d="M228.219 39.863 L228.219 52.93 223.695 52.93 223.695 35.547 235.566 35.547 235.566 39.863" fill="#ffffff" fill-opacity="1" stroke="none"/>
  <path id="Path-16" d="M241.961 44.238 C241.961 47.102 243.938 49.016 246.445 49.016 248.977 49.016 250.93 47.105 250.93 44.238 250.93 41.395 248.973 39.461 246.445 39.465 243.926 39.461 241.961 41.387 241.961 44.238 M255.504 44.238 C255.504 49.473 251.512 53.324 246.445 53.324 241.387 53.324 237.387 49.445 237.387 44.238 237.387 38.996 241.449 35.152 246.445 35.152 251.445 35.152 255.504 39.004 255.504 44.238" fill="#ffffff" fill-opacity="1" stroke="none"/>
  <path id="Path-17" d="M106.262 84.535 L106.262 71.469 101.738 71.469 99.668 84.543 92.801 84.543 92.801 80.227 95.773 80.227 97.879 67.148 110.785 67.148 110.785 84.535" fill="#fcdc05" fill-opacity="1" stroke="none"/>
  <path id="Path-18" d="M118.738 75.844 C118.738 78.703 120.688 80.617 123.195 80.617 125.727 80.617 127.648 78.711 127.648 75.844 127.648 72.996 125.719 71.063 123.195 71.066 120.672 71.063 118.738 72.992 118.738 75.844 M127.645 69.652 L127.645 67.148 132.172 67.148 132.172 84.531 127.645 84.531 127.645 82.105 C126.492 83.797 124.633 84.926 122.164 84.93 117.645 84.926 114.164 81.18 114.164 75.84 114.164 70.473 117.703 66.758 122.137 66.754 124.609 66.758 126.48 67.922 127.645 69.652" fill="#fcdc05" fill-opacity="1" stroke="none"/>
  <path id="Path-19" d="M140.836 71.469 L140.836 84.535 136.309 84.535 136.309 67.148 148.184 67.148 148.184 71.469" fill="#fcdc05" fill-opacity="1" stroke="none"/>
  <path id="Path-20" d="M180.211 71.066 C177.684 71.063 175.754 72.996 175.754 75.844 175.754 78.711 177.676 80.617 180.207 80.617 182.719 80.617 184.664 78.703 184.664 75.844 184.664 72.992 182.73 71.063 180.211 71.066 Z M189.238 75.84 C189.238 81.18 185.762 84.926 181.238 84.926 178.77 84.926 176.91 83.797 175.758 82.105 L175.758 91.805 171.23 91.805 171.23 67.148 175.758 67.148 175.758 69.652 C176.922 67.922 178.793 66.754 181.266 66.754 185.695 66.754 189.238 70.473 189.238 75.84" fill="#fcdc05" fill-opacity="1" stroke="none"/>
  <path id="Path-21" d="M197.152 80.211 L202.945 80.211 202.945 76.016 197.152 76.016 Z M207.473 72.133 L207.473 84.531 192.629 84.531 192.629 67.148 197.152 67.148 197.152 72.133" fill="#fcdc05" fill-opacity="1" stroke="none"/>
  <path id="Path-22" d="M211.563 38.867 L211.563 38.863 C213.383 38.863 215.211 39.922 215.629 42.059 L207.449 42.059 C207.977 40.113 209.535 38.871 211.563 38.867 M215.246 47.605 C214.531 48.813 213.176 49.48 211.637 49.48 209.129 49.473 207.285 47.766 207.129 45.078 L220.367 45.078 C220.438 44.527 220.496 43.844 220.387 42.93 219.84 38.176 215.969 35.152 211.484 35.152 206.375 35.156 202.531 39.074 202.531 44.246 202.531 49.402 206.352 53.324 211.617 53.324 215.473 53.324 218.922 51.211 220.047 47.605" fill="#ffffff" fill-opacity="1" stroke="none"/>
  <path id="Path-23" d="M159.098 70.469 C160.922 70.469 162.75 71.527 163.168 73.66 L154.988 73.66 C155.512 71.719 157.07 70.477 159.098 70.469 M162.746 79.277 C162.02 80.441 160.688 81.086 159.176 81.086 156.664 81.078 154.824 79.367 154.664 76.684 L167.906 76.684 C167.977 76.133 168.035 75.445 167.926 74.531 167.375 69.781 163.508 66.754 159.023 66.754 L159.023 66.758 C153.914 66.758 150.07 70.68 150.07 75.852 150.07 81.008 153.891 84.926 159.156 84.926 162.984 84.926 166.418 82.844 167.566 79.277" fill="#fcdc05" fill-opacity="1" stroke="none"/>
 </g>
</svg>
